<svg id="visual" viewBox="0 0 1532 300" width="1532" height="300" xmlns="http://www.w3.org/2000/svg" xmlns:xlink="http://www.w3.org/1999/xlink" version="1.1"><path d="M0 85L51 85.5C102 86 204 87 306.2 83.5C408.3 80 510.7 72 612.8 71.5C715 71 817 78 919.2 81.5C1021.3 85 1123.7 85 1225.8 81.5C1328 78 1430 71 1481 67.5L1532 64L1532 0L1481 0C1430 0 1328 0 1225.8 0C1123.7 0 1021.3 0 919.2 0C817 0 715 0 612.8 0C510.7 0 408.3 0 306.2 0C204 0 102 0 51 0L0 0Z" fill="#28534f"></path><path d="M0 208L51 203C102 198 204 188 306.2 182C408.3 176 510.7 174 612.8 175C715 176 817 180 919.2 187.5C1021.3 195 1123.7 206 1225.8 203C1328 200 1430 183 1481 174.5L1532 166L1532 62L1481 65.5C1430 69 1328 76 1225.8 79.5C1123.7 83 1021.3 83 919.2 79.5C817 76 715 69 612.8 69.5C510.7 70 408.3 78 306.2 81.5C204 85 102 84 51 83.5L0 83Z" fill="#36716c"></path><path d="M0 301L51 301C102 301 204 301 306.2 301C408.3 301 510.7 301 612.8 301C715 301 817 301 919.2 301C1021.3 301 1123.7 301 1225.8 301C1328 301 1430 301 1481 301L1532 301L1532 164L1481 172.5C1430 181 1328 198 1225.8 201C1123.7 204 1021.3 193 919.2 185.5C817 178 715 174 612.8 173C510.7 172 408.3 174 306.2 180C204 186 102 196 51 201L0 206Z" fill="#5f938e"></path></svg>