<svg id="visual" viewBox="0 0 1532 711" width="1532" height="711" xmlns="http://www.w3.org/2000/svg" xmlns:xlink="http://www.w3.org/1999/xlink" version="1.1"><rect x="0" y="0" width="1532" height="711" fill="#47777b"></rect><path d="M0 197L63.8 202.5C127.7 208 255.3 219 383 220.2C510.7 221.3 638.3 212.7 766 206.5C893.7 200.3 1021.3 196.7 1149 193.8C1276.7 191 1404.3 189 1468.2 188L1532 187L1532 0L1468.2 0C1404.3 0 1276.7 0 1149 0C1021.3 0 893.7 0 766 0C638.3 0 510.7 0 383 0C255.3 0 127.7 0 63.8 0L0 0Z" fill="#86b7ad"></path><path d="M0 138L63.8 142.8C127.7 147.7 255.3 157.3 383 156.3C510.7 155.3 638.3 143.7 766 138.2C893.7 132.7 1021.3 133.3 1149 130.5C1276.7 127.7 1404.3 121.3 1468.2 118.2L1532 115L1532 0L1468.2 0C1404.3 0 1276.7 0 1149 0C1021.3 0 893.7 0 766 0C638.3 0 510.7 0 383 0C255.3 0 127.7 0 63.8 0L0 0Z" fill="#5e938c"></path><path d="M0 65L63.8 69.2C127.7 73.3 255.3 81.7 383 82.5C510.7 83.3 638.3 76.7 766 73.7C893.7 70.7 1021.3 71.3 1149 69.8C1276.7 68.3 1404.3 64.7 1468.2 62.8L1532 61L1532 0L1468.2 0C1404.3 0 1276.7 0 1149 0C1021.3 0 893.7 0 766 0C638.3 0 510.7 0 383 0C255.3 0 127.7 0 63.8 0L0 0Z" fill="#36716c"></path></svg>