<svg id="visual" viewBox="0 0 1532 711" width="1532" height="711" xmlns="http://www.w3.org/2000/svg" xmlns:xlink="http://www.w3.org/1999/xlink" version="1.1"><path d="M0 200L51 201.2C102 202.3 204 204.7 306.2 196.3C408.3 188 510.7 169 612.8 167.8C715 166.7 817 183.3 919.2 191.7C1021.3 200 1123.7 200 1225.8 191.7C1328 183.3 1430 166.7 1481 158.3L1532 150L1532 0L1481 0C1430 0 1328 0 1225.8 0C1123.7 0 1021.3 0 919.2 0C817 0 715 0 612.8 0C510.7 0 408.3 0 306.2 0C204 0 102 0 51 0L0 0Z" fill="#28534f"></path><path d="M0 492L51 480C102 468 204 444 306.2 429.7C408.3 415.3 510.7 410.7 612.8 413.2C715 415.7 817 425.3 919.2 443.2C1021.3 461 1123.7 487 1225.8 479.8C1328 472.7 1430 432.3 1481 412.2L1532 392L1532 148L1481 156.3C1430 164.7 1328 181.3 1225.8 189.7C1123.7 198 1021.3 198 919.2 189.7C817 181.3 715 164.7 612.8 165.8C510.7 167 408.3 186 306.2 194.3C204 202.7 102 200.3 51 199.2L0 198Z" fill="#36716c"></path><path d="M0 712L51 712C102 712 204 712 306.2 712C408.3 712 510.7 712 612.8 712C715 712 817 712 919.2 712C1021.3 712 1123.7 712 1225.8 712C1328 712 1430 712 1481 712L1532 712L1532 390L1481 410.2C1430 430.3 1328 470.7 1225.8 477.8C1123.7 485 1021.3 459 919.2 441.2C817 423.3 715 413.7 612.8 411.2C510.7 408.7 408.3 413.3 306.2 427.7C204 442 102 466 51 478L0 490Z" fill="#5f938e"></path></svg>