<svg id="visual" viewBox="0 0 1532 711" width="1532" height="711" xmlns="http://www.w3.org/2000/svg" xmlns:xlink="http://www.w3.org/1999/xlink" version="1.1"><rect x="0" y="0" width="1532" height="711" fill="#36716c"></rect><path d="M0 46L42.5 54.5C85 63 170 80 255.2 84.2C340.3 88.3 425.7 79.7 510.8 70.2C596 60.7 681 50.3 766 48.2C851 46 936 52 1021.2 60.8C1106.3 69.7 1191.7 81.3 1276.8 77.7C1362 74 1447 55 1489.5 45.5L1532 36L1532 0L1489.5 0C1447 0 1362 0 1276.8 0C1191.7 0 1106.3 0 1021.2 0C936 0 851 0 766 0C681 0 596 0 510.8 0C425.7 0 340.3 0 255.2 0C170 0 85 0 42.5 0L0 0Z" fill="#47777b" stroke-linecap="round" stroke-linejoin="miter"></path></svg>